<svg xmlns="http://www.w3.org/2000/svg" xmlns:xlink="http://www.w3.org/1999/xlink" width="747" height="466" version="1.1" viewBox="0 0 747 466"><title>modules</title><desc>Created with Sketch.</desc><g id="Page-1" fill="none" fill-rule="evenodd" stroke="none" stroke-width="1"><g id="modules"><rect id="Rectangle" width="120" height="95.934" x=".5" y="97.5" fill="#D8D8D8" stroke="#979797"/><text id="base" fill="#000" font-family="Helvetica" font-size="24" font-weight="normal"><tspan x="34" y="127">base</tspan></text><text id="Logger" fill="#000" font-family="AndaleMono, Andale Mono" font-size="16" font-weight="normal"><tspan x="32" y="173">Logger</tspan></text><rect id="Rectangle" width="120" height="95.934" x="1.5" y="368.5" stroke="#979797"/><text id="flogger" fill="#000" font-family="Helvetica" font-size="24" font-weight="normal"><tspan x="25" y="425">flogger</tspan></text><rect id="Rectangle" width="120" height="95.934" x="186.5" y="368.5" stroke="#979797"/><text id="asm" fill="#000" font-family="Helvetica" font-size="24" font-weight="normal"><tspan x="224" y="425">asm</tspan></text><rect id="Rectangle" width="120" height="95.934" x="465.5" y="369" stroke="#979797"/><text id="evilplot" fill="#000" font-family="Helvetica" font-size="24" font-weight="normal"><tspan x="488" y="425.5">evilplot</tspan></text><rect id="Rectangle" width="120" height="95.934" x="626.5" y="369" stroke="#979797"/><text id="almond" fill="#000" font-family="Helvetica" font-size="24" font-weight="normal"><tspan x="649" y="425.5">almond</tspan></text><rect id="Rectangle" width="120" height="95.934" x="186.5" y=".5" fill="#D8D8D8" stroke="#979797"/><text id="sampler" fill="#000" font-family="Helvetica" font-size="24" font-weight="normal"><tspan x="201" y="36">sampler</tspan></text><text id="HMC" fill="#000" font-family="AndaleMono, Andale Mono" font-size="16" font-weight="normal"><tspan x="227" y="76">HMC</tspan></text><rect id="Rectangle" width="120" height="95.934" x="360.5" y="97.5" fill="#D8D8D8" stroke="#979797"/><text id="core" fill="#000" font-family="Helvetica" font-size="24" font-weight="normal"><tspan x="397" y="133">core</tspan></text><text id="Model" fill="#000" font-family="AndaleMono, Andale Mono" font-size="16" font-weight="normal"><tspan x="396" y="173">Model</tspan></text><rect id="Rectangle" width="120" height="95.934" x="545.5" y="97.5" fill="#D8D8D8" stroke="#979797"/><text id="notebook" fill="#000" font-family="Helvetica" font-size="24" font-weight="normal"><tspan x="558" y="133">notebook</tspan></text><text id="scatter" fill="#000" font-family="AndaleMono, Andale Mono" font-size="16" font-weight="normal"><tspan x="574" y="173">scatter</tspan></text><rect id="Rectangle" width="120" height="95.934" x="186.5" y="194.5" fill="#D8D8D8" stroke="#979797"/><text id="compute" fill="#000" font-family="Helvetica" font-size="24" font-weight="normal"><tspan x="201" y="230">compute</tspan></text><text id="Real" fill="#000" font-family="AndaleMono, Andale Mono" font-size="16" font-weight="normal"><tspan x="227" y="270">Real</tspan></text><path id="Line" fill="#979797" fill-rule="nonzero" d="M186.815585,95.4022856 L188.597714,97.8155854 L187.391065,98.7066499 L137.272,135.716 L142.025424,142.15232 L121.097783,145.797022 L130.738607,126.868088 L135.49,133.303 L185.608935,96.2933501 L186.815585,95.4022856 Z"/><path id="Line-2" fill="#979797" fill-rule="nonzero" d="M121.100738,145.199018 L141.991339,149.050358 L137.175,155.438 L187.402946,193.302215 L188.600731,194.205161 L186.794839,196.600731 L185.597054,195.697785 L135.37,157.833 L130.554027,164.222302 L121.100738,145.199018 Z"/><path id="Line-3" fill="#979797" fill-rule="nonzero" d="M307.129398,97.1643603 L327.589436,102.877228 L322.219,108.806 L361.506919,144.388193 L362.618726,145.395113 L360.604887,147.618726 L359.493081,146.611807 L320.205,111.03 L314.835126,116.960111 L307.129398,97.1643603 Z"/><path id="Line-4" fill="#979797" fill-rule="nonzero" d="M360.583125,143.380309 L362.619691,145.583125 L361.518283,146.601408 L322.102,183.042 L327.533159,188.916761 L307.132864,194.839428 L314.634908,174.965592 L320.065,180.839 L359.481717,144.398592 L360.583125,143.380309 Z"/><path id="Line-6" fill="#979797" fill-rule="nonzero" d="M63.4884729,192.488539 L63.499967,194.488506 L64.361,344.489 L74.3618731,344.431432 L62.5,368.5 L50.3622694,344.569361 L60.361,344.512 L59.500033,194.511494 L59.488539,192.511527 L63.4884729,192.488539 Z"/><path id="Line-6" fill="#979797" fill-rule="nonzero" d="M248,289 L248,345 L258,345 L246,369 L234,345 L244,345 L244,289 L248,289 Z"/><path id="Line-6" fill="#979797" fill-rule="nonzero" d="M604.983242,193.360643 L608.639357,194.983242 L607.828057,196.811299 L540.563,348.374 L549.703935,352.431107 L529,369.5 L527.767247,342.695517 L536.907,346.752 L604.171943,195.188701 L604.983242,193.360643 Z"/><path id="Line-6" fill="#979797" fill-rule="nonzero" d="M606.903717,193.319833 L607.791942,195.111775 L683.132,347.108 L692.092954,342.667345 L692,369.5 L670.589648,353.326044 L679.549,348.884 L604.208058,196.888225 L603.319833,195.096283 L606.903717,193.319833 Z"/><text id="Scala-2.12-only" fill="#000" font-family="Helvetica-Oblique, Helvetica" font-size="14" font-style="italic" font-weight="normal"><tspan x="560" y="87">Scala 2.12 only</tspan></text></g></g></svg>